<svg xmlns="http://www.w3.org/2000/svg" viewBox="0 0 31 31"><path d="M1 1h7v7h-7zM9 1h3v1h1v1h-1v2h-2v-1h-1zM16 1h2v3h1v1h1v1h-1v1h-1v2h-2v-1h1v-1h-1v-1h-1v-1h2v-1h-1v-1h1v-1h-1zM19 1h1v1h-1zM23 1h7v7h-7zM2 2v5h5v-5zM20 2h1v2h-1zM24 2v5h5v-5zM3 3h3v3h-3zM13 3h1v1h-1zM25 3h3v3h-3zM21 4h1v1h-1zM9 5h1v1h-1zM10 6h1v1h-1zM9 7h1v1h-1zM11 7h1v2h-2v-1h1zM13 7h1v1h-1zM15 7h1v1h-1zM19 7h1v1h-1zM21 7h1v2h-1v1h1v1h-2v-3h1zM14 8h1v6h1v1h-1v1h-2v-1h1v-3h-1v-1h1v-1h-1v-1h1zM1 9h1v1h-1zM4 9h6v1h-1v1h1v1h-1v1h-1v-1h-1v-1h1v-1h-1v1h-2v-1h-1zM18 9h1v1h-1zM22 9h1v1h-1zM25 9h1v1h1v-1h3v1h-1v2h-1v-1h-1v1h-2v-1h-1v-1h1zM2 10h2v1h1v2h3v1h-1v1h-1v-1h-1v1h-1v-1h-1v-1h-1v-1h1v-1h-1zM10 10h1v1h-1zM17 10h1v2h1v-1h1v1h2v2h-1v-1h-3v1h2v1h1v1h-2v-1h-1v1h-1v-2h-1v-1h1v-1h-1v-1h1zM1 11h1v1h-1zM11 11h1v1h-1zM23 11h1v1h-1zM10 12h1v1h1v-1h1v3h-1v2h-1v-1h-2v-2h1zM24 12h1v1h1v2h1v1h-1v1h-1v1h2v1h1v3h1v-1h1v2h-3v-2h-1v-1h-3v-1h1v-3h1v-1h-1v1h-1v1h-1v-3h1v-1h1zM1 13h1v1h1v2h-1v-1h-1zM27 14h1v1h-1zM5 15h1v2h-1v1h-1v-2h1zM7 15h1v1h-1zM29 15h1v5h-1v-3h-2v-1h2zM1 16h1v1h-1zM8 16h1v1h2v3h1v1h-1v1h-1v-2h-3v-1h3v-1h-3v-1h1zM16 16h1v1h-1zM2 17h1v1h-1zM13 17h1v1h-1zM15 17h1v2h-2v-1h1zM17 17h1v1h5v1h-2v2h5v5h-1v1h-1v-1h-1v2h-1v-1h-3v1h-1v-2h2v-2h-1v1h-1v-2h1v-1h1v-2h-1v-1h-2zM1 18h1v1h1v-1h1v2h-1v1h1v-1h1v2h-4zM5 18h2v1h-1v1h-1zM12 18h1v1h-1zM16 19h1v1h-1zM15 20h1v1h3v1h-3v2h1v1h-1v1h-1v1h-1v-2h1v-3h-1v-1h1zM7 21h2v1h-2zM9 22h1v1h1v3h1v-1h1v2h-1v1h3v1h1v1h-3v-1h-2v-1h-1v-1h-1zM11 22h2v1h-2zM22 22v3h3v-3zM1 23h7v7h-7zM23 23h1v1h-1zM2 24v5h5v-5zM13 24h1v1h-1zM3 25h3v3h-3zM17 25h1v1h-1zM26 26h3v1h1v2h-1v-1h-1v-1h-1v1h-1v1h1v1h-3v-2h1v-1h1zM16 27h1v2h-1zM19 28h2v1h1v1h-2v-1h-1zM27 28h1v1h-1zM9 29h1v1h-1z"/></svg>