<svg xmlns="http://www.w3.org/2000/svg" viewBox="0 0 31 31"><path d="M1 1h7v7h-7zM9 1h1v2h-1zM12 1h1v1h-1zM14 1h3v1h-2v1h-2v-1h1zM18 1h4v1h-2v1h1v1h-2v-1h-1v1h-1v-2h1zM23 1h7v7h-7zM2 2v5h5v-5zM11 2h1v1h1v1h1v1h-1v1h2v1h-1v2h1v1h1v-2h1v-1h-1v-1h1v-1h1v-1h1v2h-1v2h1v-2h2v1h-1v2h1v2h-1v-1h-2v-1h-1v2h-2v1h-1v-1h-2v-2h1v-2h-1v2h-3v-2h1v1h1v-2h-1v-1h-1v-1h2zM24 2v5h5v-5zM3 3h3v3h-3zM25 3h3v3h-3zM15 4h2v1h-1v1h-1zM15 7h1v1h-1zM21 7h1v2h-1zM1 9h1v1h-1zM3 9h2v1h-1v2h-2v-1h1zM6 9h3v1h-3zM23 9h1v1h2v1h-2v1h-2v-2h1zM26 9h1v1h-1zM28 9h2v2h-1v-1h-1zM27 10h1v2h-1v1h1v2h-1v1h-1v-2h-1v-2h1v-1h1zM5 11h1v1h1v1h4v1h1v-1h1v-1h1v3h-3v1h-1v-1h-1v-1h-2v1h-1v-1h-1zM7 11h2v1h-2zM11 11h1v1h-1zM17 11h1v2h-1zM1 12h1v1h-1zM21 12h1v1h-1zM28 12h2v2h-1v-1h-1zM3 13h1v1h1v1h1v1h-2v1h-1zM15 13h2v1h-1v1h-1zM18 13h1v1h-1zM20 13h1v3h-1zM1 14h1v3h-1zM17 14h1v5h2v2h4v-1h1v-1h1v5h1v1h1v1h1v1h-2v-1h-1v1h-1v-1h-2v1h-2v-3h-1v-1h-1v-1h-1v1h-1v2h-3v-1h1v-1h1v-1h1v-1h1v-1h-2v2h-2v-1h-1v-1h1v-1h1v-3h1v1h1v-1h-1v-1h1zM22 14h2v2h2v2h-2v-1h-1v-2h-1zM7 15h2v1h1v2h-1v-1h-1v-1h-1zM14 15h1v1h-1zM28 15h2v1h-1v1h-1zM6 16h1v1h1v1h-1v1h1v1h-4v1h2v1h-4v-1h1v-3h1v1h2v-1h-2v-1h2zM11 16h1v1h-1zM21 16h1v1h-1zM2 17h1v1h-1zM13 17h1v1h-1zM19 17h1v1h-1zM22 17h1v2h-1v1h-1v-2h1zM8 18h1v1h-1zM12 18h1v1h-1zM16 18v1h1v-1zM28 18h2v1h-2zM1 19h1v1h-1zM9 19h3v1h-1v1h-3v-1h1zM27 20h1v1h1v3h-1v-2h-1zM7 21h1v1h-1zM11 21h1v5h-2v-1h-1v-3h1v1h1zM13 22h1v1h-1zM22 22v3h3v-3zM1 23h7v7h-7zM18 23h1v1h-1zM23 23h1v1h-1zM2 24v5h5v-5zM19 24h1v1h-1zM3 25h3v3h-3zM13 25h1v1h-1zM18 25h1v1h-1zM29 25h1v1h-1zM9 26h1v1h1v1h1v2h-3v-1h1v-1h-1zM12 26h1v1h-1zM14 26h1v1h1v1h-2v1h-1v-2h1zM18 27h2v1h6v1h-1v1h-1v-1h-1v1h-4v-2h-1zM26 27h1v1h-1zM29 27h1v1h-1zM17 28h1v1h-1zM28 28h1v2h-1zM16 29h1v1h-1zM26 29h1v1h-1z"/></svg>