<svg xmlns="http://www.w3.org/2000/svg" viewBox="0 0 31 31"><path d="M1 1h7v7h-7zM9 1h1v1h-1zM13 1h1v1h2v1h1v-1h-1v-1h4v1h-2v1h2v1h1v1h-1v1h-2v-1h1v-1h-3v1h1v2h-1v-1h-2v-1h1v-2h-2zM21 1h1v2h-1zM23 1h7v7h-7zM2 2v5h5v-5zM10 2h1v1h2v1h-2v2h1v-1h1v1h1v2h-1v-1h-1v3h2v-1h1v-2h1v1h1v-1h1v2h-2v2h-5v1h2v1h1v-1h1v2h-1v1h-1v2h-1v-4h-3v-1h1v-2h1v-1h-1v-1h1v-1h-1v1h-1v-2h1v-2h-1v-1h1zM24 2v5h5v-5zM3 3h3v3h-3zM25 3h3v3h-3zM13 4h1v1h-1zM19 7h1v2h-1zM21 7h1v2h-1zM1 9h1v2h2v3h-1v-2h-2zM3 9h1v1h-1zM7 9h2v1h-2zM20 9h1v1h1v1h-1v1h-1zM24 9h1v1h-1zM27 9h1v1h1v-1h1v3h-1v1h-1v-1h-1zM4 10h1v1h-1zM18 10h1v2h-1zM23 10h1v1h2v2h-1v-1h-2zM5 11h3v1h-3zM16 11h1v1h-1zM19 12h1v1h-1zM21 12h1v1h-1zM1 13h1v1h-1zM6 13h2v1h-2zM16 13h2v2h1v1h-1v2h-1v-1h-1v2h-2v1h1v2h-1v-1h-1v-1h-1v1h-2v-1h1v-1h-2v-1h3v1h1v-2h2v-1h-1v-1h2v1h1v-2h-1zM20 13h1v1h1v1h1v2h-2v-1h-1zM23 13h1v1h-1zM4 14h2v3h-2zM8 14h3v3h-1v-1h-1v2h-2v-1h1v-1h-1v-1h1zM27 14h1v2h-1zM25 15h1v1h-1zM29 15h1v1h-1zM19 16h1v1h-1zM1 17h2v2h1v1h-3v-1h1v-1h-1zM20 17h1v1h1v1h-1v1h-2v-2h1zM23 17h1v2h-1zM28 17h2v1h-1v1h-1zM4 18h1v1h-1zM5 19h3v1h-1v1h-1v-1h-1zM16 19h1v1h1v2h1v1h1v1h1v-3h2v-1h1v1h2v1h1v1h-1v2h1v2h2v-1h-1v-1h2v3h-4v2h-2v-1h1v-1h-1v-2h-1v1h-1v-1h-2v-1h-1v-1h-1v3h-1v1h-1v1h2v1h-4v-1h1v-2h-2v-1h-1v-3h1v-1h1v1h2v-1h1v-1h-1zM24 19h3v1h-3zM29 19h1v3h-1v-1h-1v-1h1zM4 20h1v1h-1zM1 21h3v1h-3zM7 21h3v1h2v1h-1v3h-1v-2h-1v-2h-2zM12 21h1v1h-1zM22 22v3h3v-3zM1 23h7v7h-7zM23 23h1v1h-1zM27 23h1v1h-1zM29 23h1v1h-1zM2 24v5h5v-5zM14 24v1h1v-1zM3 25h3v3h-3zM16 25v1h1v-1zM11 26h1v1h1v1h-1v2h-3v-1h2zM9 27h1v1h-1zM19 27h1v1h1v-1h1v3h-1v-1h-2zM13 28h1v1h-1zM29 29h1v1h-1z"/></svg>