<svg xmlns="http://www.w3.org/2000/svg" viewBox="0 0 31 31"><path d="M1 1h7v7h-7zM10 1h1v1h-1zM13 1h2v1h2v1h-2v1h2v1h-1v4h-1v-2h-1v-4h-1zM17 1h1v1h-1zM19 1h3v3h-2v2h-1v-1h-1v-1h-1v-1h1v-1h1v1h2v-1h-2zM23 1h7v7h-7zM2 2v5h5v-5zM24 2v5h5v-5zM3 3h3v3h-3zM11 3h1v1h-1zM25 3h3v3h-3zM10 5h1v1h-1zM12 5h1v1h-1zM17 5h1v1h-1zM9 6h1v2h-1zM11 6h1v2h-1zM20 6h2v3h1v1h1v-1h1v2h-2v2h2v2h-5v-1h2v-3h-1v-4h-1zM13 7h1v1h-1zM17 7h1v1h-1zM19 7h1v2h-2v-1h1zM1 9h1v2h-1zM4 9h1v1h-1zM6 9h2v1h-2zM9 9h1v1h2v2h1v1h-3v1h1v1h1v1h-1v1h-2v-1h1v-1h-1v-1h-2v-1h2v-2h-1v-1h1zM12 9h1v1h-1zM16 9h1v2h-2v-1h1zM3 10h1v1h-1zM5 10h1v1h-1zM13 10h1v2h-1zM26 10h2v3h-1v1h-1v-1h-1v-2h1v1h1v-1h-1zM29 10h1v1h-1zM2 11h1v1h-1zM4 11h1v1h1v-1h2v1h-1v1h-2v1h1v1h3v1h-3v1h-1v-1h-1v1h1v1h-2v-2h-2v-1h1v-1h1v1h1v-1h-1v-2h1zM10 11v1h1v-1zM17 11h1v1h-1zM20 11h1v2h-2v-1h1zM1 12h1v2h-1zM15 12h2v1h-2zM17 13h2v3h3v1h-1v1h-1v-1h-1v1h-1v-1h-1v-1h-1v-2h1v1h1v-1h-1zM28 13h1v1h1v4h-1v-1h-1v-2h-1v-1h1zM12 14h2v2h-1v-1h-1zM25 15h2v2h-1v-1h-1zM14 16h2v1h1v2h-1v-1h-3v-1h1zM24 16h1v2h-1zM7 17h1v1h-1zM22 17h1v1h1v1h-1v2h1v-1h1v1h3v1h-2v2h2v-1h1v2h-3v1h1v1h-1v1h1v1h-1v1h-1v-1h-1v-2h1v-1h-1v1h-1v-1h-2v-3h-1v-2h2zM2 18h1v1h-1zM6 18h1v1h-1zM8 18h1v2h-2v-1h1zM19 18h1v2h-1v1h-1v-2h1zM26 18h3v1h1v1h-5v-1h1zM1 19h1v1h-1zM3 19h1v1h-1zM5 19h1v1h-1zM10 19h2v1h-1v1h-1v2h-1v-3h1zM14 19h1v2h-1v1h-1v-2h1zM4 20h1v1h3v1h-4zM1 21h1v1h-1zM11 21h1v1h1v1h-1v1h-2v-1h1zM15 21h3v2h-1v-1h-2zM29 21h1v1h-1zM14 22h1v1h1v1h-1v1h-1v1h1v-1h2v-1h1v1h1v2h-1v-1h-2v1h-1v1h2v1h-2v1h-2v-1h-1v-1h1v-3h-1v-1h1v-1h1zM22 22v3h3v-3zM1 23h7v7h-7zM19 23h1v2h-1zM23 23h1v1h-1zM2 24v5h5v-5zM9 24h1v1h-1zM3 25h3v3h-3zM10 25h2v2h-1v-1h-1zM29 25h1v1h-1zM9 26h1v1h-1zM28 26h1v1h-1zM19 27h2v1h-1v1h-1v1h-1v-2h1zM22 27h1v2h1v1h-3v-2h1zM29 27h1v1h-1zM28 28h1v2h-1zM9 29h3v1h-3z"/></svg>