<svg xmlns="http://www.w3.org/2000/svg" viewBox="0 0 31 31"><path d="M1 1h7v7h-7zM10 1h1v1h1v1h1v-1h-1v-1h5v1h1v1h-1v2h1v1h-2v-1h-1v-1h1v-1h-1v1h-1v1h-1v2h-1v1h-1v-2h1v-2h-1v-1h-1zM19 1h2v1h-1v1h1v-1h1v2h-1v1h1v1h-2v2h-1v-3h1v-1h-1zM23 1h7v7h-7zM2 2v5h5v-5zM24 2v5h5v-5zM3 3h3v3h-3zM9 3h1v2h1v1h-1v2h1v1h-2zM25 3h3v3h-3zM13 7h1v3h3v1h1v1h-1v2h1v1h-2v-1h-1v-1h1v-1h-1v1h-1v2h-1v1h-1v-2h1v-2h1v-1h-1v-1h-1v-2h1zM15 7h1v2h-1zM17 7h1v2h1v1h2v-3h1v3h1v-1h5v2h-1v-1h-1v1h1v1h-2v-2h-1v1h-2v1h1v1h-1v1h1v1h2v-1h1v3h-1v-1h-3v-1h-3v-1h2v-3h-3v-1h-1zM1 9h1v2h1v-2h5v1h-1v1h-1v1h-1v-1h-1v4h-1v-3h-1v1h-1zM8 10h1v2h-2v-1h1zM10 10h2v1h-1v1h-1zM29 10h1v1h-1zM12 11h1v1h-1zM28 11h1v1h1v1h-1v2h-2v-1h-1v-1h2zM9 12h1v1h1v-1h1v2h-1v3h-1v1h1v-1h2v1h-1v1h-3v-2h-1v-1h-2v-1h2v-1h-1v-1h2zM18 13h1v1h-1zM24 13h1v1h-1zM1 14h1v1h1v1h1v1h1v-1h1v2h-1v1h-1v1h-1v-1h-1v3h-1zM5 14h1v1h-1zM9 14v2h1v-2zM4 15h1v1h-1zM15 16h1v1h-1zM17 16h1v1h-1zM21 16h1v2h2v3h1v-3h1v1h1v1h-1v1h2v-1h2v2h-1v1h-1v-1h-2v1h2v1h-2v2h-1v1h-1v-1h-3v-1h-1v-1h-1v-1h-2v-1h1v-1h1v1h1v1h1v-1h-1v-1h2v-1h1v-1h-1v1h-1v-1h-1v-1h1zM2 17v1h1v-1zM7 17h1v1h-1zM18 17h1v1h-1zM24 17h1v1h-1zM26 17h3v2h-2v-1h-1zM6 18h1v1h1v1h-1v1h-1v1h-1v-1h-1v-1h1v-1h1zM14 18h3v1h3v2h-1v-1h-1v1h-1v-1h-2v1h-1zM12 19h1v3h-1v1h-1v-1h-1v1h-1v-1h-2v-1h3v-1h2zM3 21h1v1h-1zM15 21h1v1h-1zM13 22h1v3h-1v1h-1v1h1v2h-1v-1h-1v-1h-1v1h-1v-4h1v1h1v-1h1v-1h1zM22 22v3h3v-3zM1 23h7v7h-7zM16 23h1v1h-1zM23 23h1v1h-1zM2 24v5h5v-5zM15 24h1v1h-1zM17 24h1v1h-1zM28 24h1v2h1v1h-1v2h-1v-3h-1v-1h1zM3 25h3v3h-3zM18 25h1v1h-1zM14 26h2v1h-2zM17 26h1v1h1v-1h1v1h1v1h2v1h-2v1h-1v-2h-3v2h-2v-1h-1v-1h2v-1h1zM26 26h1v1h-1zM23 27h1v1h-1zM25 27h1v1h-1zM9 29h2v1h-2zM13 29h1v1h-1zM18 29h1v1h-1zM23 29h1v1h-1zM25 29h3v1h-3z"/></svg>