<svg xmlns="http://www.w3.org/2000/svg" viewBox="0 0 31 31"><path d="M1 1h7v7h-7zM10 1h2v1h1v-1h1v2h-1v1h-2v-2h-1zM15 1h1v1h-1zM19 1h1v1h-1zM23 1h7v7h-7zM2 2v5h5v-5zM17 2h2v2h-1v-1h-1zM24 2v5h5v-5zM3 3h3v3h-3zM15 3h2v1h-2zM25 3h3v3h-3zM13 4h2v1h-1v3h-1v-1h-1v1h-1v-1h-1v1h-1v-2h1v-1h1v1h1v-1h1zM17 4h1v1h-1zM19 4h2v1h-1v1h1v1h-1v1h1v-1h1v2h-1v1h-1v-1h-2v1h1v1h-2v1h-2v1h-2v-1h1v-1h-3v-1h2v-1h1v1h1v1h1v-1h1v-1h-1v-1h1v-1h-1v-1h2v2h1v-2h-1v-1h1zM21 5h1v1h-1zM15 7h1v1h-1zM14 8h1v1h-1zM1 9h1v1h-1zM4 9h1v1h1v1h4v1h-3v1h1v1h-2v-2h-1v-1h-2v1h-1v-2h2zM6 9h2v1h-2zM9 9h1v1h-1zM15 9h1v1h-1zM22 9h1v2h-1v1h-1v1h-2v-1h1v-1h1v-1h1zM24 9h1v1h-1zM26 10h2v3h-1v2h-1v-3h-1v-1h1zM29 10h1v1h-1zM23 11h1v1h-1zM11 12h1v1h-1zM17 12h1v1h-1zM24 12h1v1h-1zM29 12h1v5h-1v2h1v1h-2v-1h-2v-1h2v-4h1zM1 13h2v1h-1v1h-1zM4 13h1v2h-1v1h-2v-1h1v-1h1zM9 13h2v1h2v1h1v-1h1v-1h2v1h1v-1h1v1h3v-1h2v1h-1v2h1v-2h1v1h1v1h1v1h-2v1h-1v-1h-1v1h-1v-1h-1v1h-1v-2h1v-1h-1v1h-1v-1h-3v1h-4v-1h-1v1h-1v2h-3v-1h1v-1h1v-1h1v-1h-1zM8 14h1v1h-1zM6 15h2v1h-2zM1 16h1v1h-1zM4 16h2v1h-1v1h2v1h-1v1h-1v1h-2v-2h1zM16 16h1v1h-1zM18 16h1v3h-1v1h-2v1h-1v-2h-1v2h-1v-1h-1v-1h1v-2h2v1h3zM2 17h1v2h-1zM11 17h1v2h-1zM23 18h1v1h2v1h-1v1h1v2h3v1h-1v1h-1v1h-1v2h-1v1h-1v-2h1v-1h-1v1h-1v-1h-2v-7h1v2h2v-1h-1zM1 19h1v1h-1zM7 19h3v4h-1v-1h-3v-1h2v-1h-1zM19 19h1v2h-2v-1h1zM11 20h1v1h-1zM1 21h1v1h-1zM16 21h2v1h-1v1h-2v-1h1zM27 21h1v1h-1zM29 21h1v1h-1zM12 22h1v1h-1zM18 22h1v1h1v2h-1v-1h-1v1h1v2h1v1h1v-1h2v1h-1v2h-1v-1h-2v1h-1v-1h-1v-2h1v-1h-2v-1h1v-2h1zM22 22v3h3v-3zM1 23h7v7h-7zM10 23h2v1h2v2h-1v-1h-2v-1h-1zM23 23h1v1h-1zM2 24v5h5v-5zM9 24h1v1h-1zM15 24h1v1h-1zM29 24h1v1h-1zM3 25h3v3h-3zM10 25h1v1h-1zM28 25h1v1h-1zM9 26h1v1h-1zM11 26h2v1h-1v2h-1zM14 26h1v1h1v2h-1v-1h-1zM20 26h1v1h-1zM29 26h1v2h-1zM27 27h1v1h-1zM13 28h1v1h-1zM26 28h1v1h-1zM28 28h1v2h-1zM9 29h2v1h-2zM14 29h1v1h-1zM16 29h1v1h-1zM25 29h1v1h-1z"/></svg>