<svg xmlns="http://www.w3.org/2000/svg" viewBox="0 0 31 31"><path d="M1 1h7v7h-7zM11 1h4v1h2v1h-2v1h2v1h-1v4h-1v-2h-1v-1h-1v-1h1v-1h-1v1h-1v-2h2v-1h-2v1h-1v4h-1v1h-1v-2h1v-4h1zM17 1h1v1h-1zM19 1h3v3h-2v2h-1v-1h-1v-1h-1v-1h1v-1h1v1h2v-1h-2zM23 1h7v7h-7zM2 2v5h5v-5zM24 2v5h5v-5zM3 3h3v3h-3zM25 3h3v3h-3zM17 5h1v1h-1zM20 6h2v3h1v1h1v-1h1v2h-2v2h2v2h-5v-1h2v-3h-1v-4h-1zM11 7h1v2h1v2h-2v3h-1v-2h-1v-1h1v-1h1zM13 7h1v1h-1zM17 7h1v1h-1zM19 7h1v2h-2v-1h1zM1 9h1v2h-1zM4 9h1v1h-1zM6 9h2v1h-1v1h-1zM9 9h1v1h-1zM16 9h1v2h-2v-1h1zM3 10h1v2h-1zM26 10h2v2h1v1h1v3h-2v-1h1v-1h-1v-1h-1v1h-1v-1h-1v-2h1v1h1v-1h-1zM29 10h1v1h-1zM5 11h1v2h-1v2h-3v2h-1v-3h3v-2h1zM7 11h1v1h-1zM13 11h1v1h-1zM17 11h1v1h-1zM20 11h1v2h-2v-1h1zM1 12h2v1h-2zM12 12h1v1h-1zM15 12h2v1h-2zM7 13h2v1h-2zM13 13h1v2h-1zM17 13h2v3h3v1h-1v1h-1v-1h-1v1h-1v-1h-1v-1h-1v-2h1v1h1v-1h-1zM6 14h1v1h1v1h-2zM9 14h1v1h-1zM11 14h1v1h1v3h-1v-1h-3v-1h2zM27 14h1v1h-1zM25 15h2v2h-1v-1h-1zM4 16h1v1h-1zM14 16h2v1h1v2h-1v-1h-2zM24 16h1v2h-1zM7 17h1v1h-1zM22 17h1v1h1v1h-1v2h1v-1h1v1h3v1h-2v2h2v-2h1v3h-3v1h1v1h-1v1h1v1h-1v1h-1v-1h-1v-2h1v-1h-1v1h-1v-1h-2v-3h-1v-2h2zM28 17h1v2h1v3h-1v-2h-1v-1h-1v1h-2v-1h1v-1h2zM3 18h4v1h1v1h-3v2h-2zM8 18h1v1h-1zM10 18h1v1h-1zM13 18h1v1h-1zM19 18h1v2h-1v1h-1v-2h1zM1 19h1v1h-1zM9 19h1v1h1v3h-2zM11 19h1v1h-1zM14 19h1v2h-1zM12 20h1v1h-1zM1 21h1v1h-1zM6 21h2v1h-2zM13 21h1v1h-1zM15 21h3v2h-1v-1h-2zM14 22h1v1h1v1h-1v1h-2v-1h-2v-1h3zM22 22v3h3v-3zM1 23h7v7h-7zM19 23h1v2h-1zM23 23h1v1h-1zM2 24v5h5v-5zM9 24h1v1h-1zM17 24h1v1h1v2h-1v-1h-2v1h-1v-2h2zM3 25h3v3h-3zM10 25h2v2h-1v-1h-1zM29 25h1v1h-1zM9 26h1v1h-1zM28 26h1v1h-1zM12 27h2v1h3v1h-1v1h-1v-1h-2v-1h-1zM19 27h2v1h-1v1h-1v1h-1v-2h1zM22 27h1v2h1v1h-3v-2h1zM29 27h1v1h-1zM28 28h1v2h-1zM9 29h2v1h-2z"/></svg>