<svg xmlns="http://www.w3.org/2000/svg" viewBox="0 0 31 31"><path d="M1 1h7v7h-7zM9 1h2v1h-2zM12 1h2v1h-1v3h-2v1h-1v-2h-1v-1h2v1h1zM16 1h4v1h-2v1h2v1h1v1h-1v1h-2v-1h1v-1h-3v1h1v2h-1v-1h-2v-1h1v-2h-1v-1h2v1h1v-1h-1zM21 1h1v2h-1zM23 1h7v7h-7zM2 2v5h5v-5zM24 2v5h5v-5zM3 3h3v3h-3zM25 3h3v3h-3zM9 6h1v2h-1zM12 6h2v3h-3v-2h1v1h1v-1h-1zM15 7h1v1h1v-1h1v2h-2v2h-2v-2h1zM19 7h1v2h-1zM21 7h1v2h-1zM1 9h1v1h-1zM3 9h1v1h-1zM7 9h2v1h-2zM10 9h1v1h-1zM20 9h1v1h1v1h-1v1h-1zM24 9h1v1h-1zM27 9h1v1h1v-1h1v3h-1v1h1v1h-1v1h-1v1h-1v-2h1v-2h-1zM2 10h1v2h-1zM4 10h1v1h-1zM11 10h2v1h-1v1h-1zM18 10h1v2h-1zM23 10h1v1h2v2h-1v-1h-2zM5 11h1v3h1v1h-2v-1h-1v-1h1zM7 11h3v1h-1v1h-1v-1h-1zM13 11h1v1h1v2h-1v-1h-1v1h-2v2h-1v-1h-1v-1h1v-2h1v1h1v-1h1zM16 11h1v1h-1zM1 12h1v1h1v1h-1v2h-1zM3 12h1v1h-1zM19 12h1v1h-1zM21 12h1v1h-1zM7 13h1v1h-1zM16 13h2v2h1v1h-1v2h-1v-1h-1v2h-2v1h-1v-1h-1v1h-1v-2h3v-1h1v-1h-2v-1h3v1h1v-2h-1zM20 13h1v1h1v1h1v2h-2v-1h-1zM23 13h1v1h-1zM3 15h1v1h1v1h-3v-1h1zM7 15h1v1h-1zM25 15h1v1h-1zM29 15h1v3h-1v1h-1v-3h1zM6 16h1v1h-1zM9 16h1v1h-1zM12 16h1v1h-1zM19 16h1v1h-1zM1 17h1v1h-1zM5 17h1v1h-1zM7 17h1v1h-1zM10 17h1v1h-1zM20 17h1v1h1v1h-1v1h-2v-2h1zM23 17h1v2h-1zM3 18h2v1h-2zM1 19h2v1h-2zM7 19h3v2h-2v-1h-1zM16 19h1v1h1v2h1v1h1v1h1v-3h2v-1h1v1h2v2h1v-1h1v2h-2v1h1v2h2v-1h-1v-1h2v3h-4v2h-2v-1h1v-1h-1v-2h-1v1h-1v-1h-2v-1h-1v-1h-1v3h-1v1h-1v-1h-2v-1h-2v-1h1v-1h1v1h1v-1h-1v-1h2v-1h1v-1h-1zM24 19h3v1h-3zM29 19h1v1h-1zM3 20h1v1h-1zM5 20h2v1h1v1h-2v-1h-1zM14 20h1v2h-1v1h-1v1h-1v1h-1v-1h-2v-2h1v1h2v-1h1v-1h1zM28 20h1v1h1v1h-2zM1 21h2v1h-2zM4 21h1v1h-1zM11 21h1v1h-1zM22 22v3h3v-3zM1 23h7v7h-7zM23 23h1v1h-1zM29 23h1v1h-1zM2 24v5h5v-5zM3 25h3v3h-3zM16 25v1h1v-1zM10 26h1v1h2v1h1v1h4v1h-6v-2h-1v1h-1v-1h-1v-1h1zM19 27h1v1h1v-1h1v3h-1v-1h-2zM9 29h1v1h-1zM29 29h1v1h-1z"/></svg>