<svg xmlns="http://www.w3.org/2000/svg" viewBox="0 0 31 31"><path d="M1 1h7v7h-7zM10 1h1v1h-1zM13 1h4v1h1v1h-1v2h1v1h-2v-1h-1v-1h1v-1h-1v1h-1v-2h-1zM19 1h2v1h-1v1h1v-1h1v2h-1v1h1v1h-2v2h-1v-3h1v-1h-1zM23 1h7v7h-7zM2 2v5h5v-5zM11 2h1v1h-1zM24 2v5h5v-5zM3 3h3v3h-3zM9 3h2v1h1v1h-2v3h1v1h-2zM12 3h1v1h-1zM25 3h3v3h-3zM12 5h1v1h-1zM11 6h1v2h-1zM13 7h1v3h-1v-1h-1v-1h1zM15 7h1v2h-1zM17 7h1v2h1v1h2v-3h1v3h1v-1h5v2h-1v-1h-1v1h1v1h-2v-2h-1v1h-2v1h1v1h-1v1h1v1h2v-1h1v1h1v1h-1v1h-1v-1h-3v-1h-3v-1h2v-3h-3v-1h-1zM1 9h1v1h-1zM3 9h5v1h-2v1h-2v-1h-1zM11 9h1v1h-1zM2 10h1v1h1v1h3v1h-4v1h-1v1h1v1h-1v1h2v1h1v1h-2v-1h-1v4h-1v-9h1zM8 10h3v1h-3zM12 10h1v1h-1zM14 10h3v1h1v1h-1v2h1v1h-2v-1h-1v-1h1v-1h-1v1h-1v-1h-1v-1h1zM29 10h1v1h-1zM7 11h1v1h-1zM28 11h1v2h-1zM8 12h1v1h-1zM10 12h2v1h2v2h-1v-1h-1v1h-2v-1h1v-1h-1zM7 13h1v1h-1zM18 13h1v1h-1zM24 13h1v1h-1zM26 13h2v1h1v1h-2v-1h-1zM29 13h1v1h-1zM4 14h3v1h-1v1h-1v-1h-1zM8 14h1v1h1v1h-3v-1h1zM12 15h1v1h-1zM6 16h1v1h2v2h-1v-1h-3v-1h1zM10 16h1v1h-1zM15 16h1v1h-1zM17 16h1v1h-1zM21 16h1v2h2v3h1v-3h1v3h3v2h-1v-1h-2v4h-1v1h-1v-1h-3v-1h-1v-1h-1v-1h-2v-1h1v-1h1v1h1v1h1v-1h-1v-1h2v-1h1v-1h-1v1h-1v-1h-1v-1h1zM12 17h1v1h4v1h3v2h-1v-1h-1v1h-1v-1h-2v1h-1v-1h-2v-1h-1v1h-2v-1h1v-1h2zM18 17h1v1h-1zM24 17h1v1h-1zM26 17h4v1h-1v1h-2v-1h-1zM7 19h1v1h-1zM4 20h2v1h2v1h-5v-1h1zM11 20h1v1h-1zM29 20h1v1h-1zM9 21h1v2h-1zM15 21h1v1h-1zM13 22h1v3h-2v1h-1v-1h-1v1h1v4h-2v-1h1v-1h-1v-4h2v-1h1v1h1zM22 22v3h3v-3zM1 23h7v7h-7zM16 23h1v1h-1zM23 23h1v1h-1zM2 24v5h5v-5zM15 24h1v1h-1zM17 24h1v1h-1zM28 24h1v2h1v1h-1v2h-1v-3h-1v-1h1zM3 25h3v3h-3zM18 25h1v1h-1zM12 26h4v1h-1v2h1v-2h1v-1h1v1h1v-1h1v1h1v1h2v1h-2v1h-1v-2h-3v2h-4v-1h1v-1h-1v-1h-1zM26 26h1v1h-1zM23 27h1v1h-1zM25 27h1v1h-1zM12 28h1v1h-1zM18 29h1v1h-1zM23 29h1v1h-1zM25 29h3v1h-3z"/></svg>