<svg xmlns="http://www.w3.org/2000/svg" viewBox="0 0 31 31"><path d="M1 1h7v7h-7zM11 1h1v1h1v3h1v3h-1v-2h-2v1h-1v1h1v1h-2v-6h1v-1h1zM14 1h3v1h1v1h-1v2h1v1h-2v-1h-1v-1h1v-1h-1v1h-1zM19 1h2v1h-1v1h1v-1h1v2h-1v1h1v1h-2v2h-1v-3h1v-1h-1zM23 1h7v7h-7zM2 2v5h5v-5zM24 2v5h5v-5zM3 3h3v3h-3zM25 3h3v3h-3zM11 4v1h1v-1zM11 7h1v1h-1zM15 7h1v2h-1zM17 7h1v2h1v1h2v-3h1v3h1v-1h5v2h-1v-1h-1v1h1v1h-2v-2h-1v1h-2v1h1v1h-1v1h1v1h2v-1h1v1h1v1h-1v1h-1v-1h-3v-1h-3v-1h2v-3h-3v-1h-1zM1 9h1v1h-1zM3 9h5v1h-1v1h2v-1h1v1h1v2h-1v-1h-1v1h-1v-1h-1v1h1v1h-1v1h-1v2h5v1h1v1h1v2h-1v-1h-1v-1h-1v1h-1v-1h-1v-1h-3v1h-1v-2h1v-1h-1v-2h2v-1h-1v-2h1v-1h-1v1h-1v-1h-1zM12 9h1v2h-1zM2 10h1v1h-1zM14 10h3v1h1v1h-1v2h1v1h-2v-1h-1v-1h1v-1h-1v1h-2v-1h1zM29 10h1v1h-1zM1 11h1v1h-1zM28 11h1v1h-1zM3 12h1v1h-1zM1 13h1v1h-1zM9 13h1v1h2v1h1v1h-2v-1h-2zM18 13h1v1h-1zM24 13h1v1h-1zM26 13h3v2h-2v-1h-1zM2 14h1v1h-1zM13 14h1v1h-1zM1 15h1v1h-1zM7 15h1v1h-1zM2 16h2v1h-2zM13 16h1v2h-1zM15 16h1v1h-1zM17 16h1v1h-1zM21 16h1v2h2v3h1v-3h1v3h3v2h-1v-1h-1v2h-1v2h-1v1h-1v-1h-3v-1h-1v-1h-1v-1h-2v-1h1v-1h1v1h1v1h1v-1h-1v-1h2v-1h1v-1h-1v1h-1v-1h-1v-1h1zM29 16h1v1h-1zM18 17h1v1h-1zM24 17h1v1h-1zM26 17h3v2h-2v-1h-1zM1 18h2v1h-1v3h-1zM14 18h3v1h3v2h-1v-1h-1v1h-1v-1h-2v1h-1zM6 19h2v1h-1v1h-1v1h-1v-1h-1v-1h2zM8 20h1v1h-1zM10 20h1v1h1v1h-1v1h-2v-2h1zM29 20h1v1h-1zM7 21h1v1h-1zM15 21h1v1h-1zM22 22v3h3v-3zM1 23h7v7h-7zM12 23h1v2h1v1h-1v1h1v-1h2v1h-1v1h1v-1h1v-1h1v1h1v-1h1v1h1v1h2v1h-2v1h-1v-2h-3v2h-1v-1h-1v1h-1v-2h-1v1h-1v1h-3v-1h2v-2h1v-2h-1v-1h1zM16 23h1v1h-1zM23 23h1v1h-1zM2 24v5h5v-5zM9 24h1v1h1v1h-1v2h-1zM15 24h1v1h-1zM17 24h1v1h-1zM28 24h1v2h1v1h-1v2h-1v-3h-1v-1h1zM3 25h3v3h-3zM18 25h1v1h-1zM26 26h1v1h-1zM23 27h1v1h-1zM25 27h1v1h-1zM18 29h1v1h-1zM23 29h1v1h-1zM25 29h3v1h-3z"/></svg>