<svg xmlns="http://www.w3.org/2000/svg" viewBox="0 0 31 31"><path d="M1 1h7v7h-7zM9 1h4v1h-1v1h-3zM14 1h3v1h-2v1h-1zM19 1h2v1h-2zM23 1h7v7h-7zM2 2v5h5v-5zM17 2h2v1h-1v1h-1zM24 2v5h5v-5zM3 3h3v3h-3zM13 3h1v2h-2v-1h1zM21 3h1v1h-1zM25 3h3v3h-3zM9 4h1v1h-1zM15 4h2v1h-1v1h-1zM20 4h1v3h-1zM17 5h2v1h-1v2h1v-1h1v2h2v1h1v-1h1v2h-1v1h-1v-1h-2v1h2v2h-1v-1h-2v-1h-1v1h-1v-2h1v-2h-1v2h-2v1h-1v3h1v1h-1v3h-1v-5h-2v-1h2v-1h-1v-1h2v-1h-2v-1h3v1h1v-2h1v-1h-1v-1h1zM11 6h4v1h-1v1h-1v-1h-1v2h-3v-2h1v1h1zM15 7h1v1h-1zM21 7h1v1h-1zM1 9h1v2h-1zM3 9h2v1h-2zM6 9h3v2h-1v-1h-1v1h-2v-1h1zM26 9h1v1h-1zM28 9h2v2h-1v-1h-1zM10 10h2v1h-1v1h-1zM25 10h1v1h-1zM27 10h1v2h-1v1h1v1h-2v-1h-1v-1h1v-1h1zM3 11h2v1h-2zM7 11h1v1h-1zM24 11h1v1h-1zM1 12h1v1h-1zM9 12h1v2h-4v-1h3zM23 12h1v1h-1zM2 13h3v1h-2v1h1v1h1v1h-4v-1h1zM15 13h2v1h-1v1h-1zM18 13h1v2h-1v2h-1v-1h-1v-1h1v-1h1zM24 13h1v3h-1zM29 13h1v1h-1zM5 14h1v1h2v1h-1v1h-1v-1h-1zM10 14h1v1h1v2h-1v-1h-1zM20 14h1v2h-2v-1h1zM28 15h2v2h-1v-1h-1zM15 16h1v1h1v1h-1v1h1v-1h1v1h1v-2h1v3h-1v1h1v2h-1v1h-1v-1h-1v-1h-3v-1h-1v-1h1v-1h1zM21 16h1v1h-1zM25 16h1v1h1v1h1v1h-2v-1h-1zM7 17h2v4h-1v-1h-1v1h1v1h-2v-2h-2v-1h4v-1h-1zM10 17h1v1h-1zM22 17h1v1h-1zM11 18h1v4h-1zM21 18h1v3h1v-2h1v1h1v1h1v3h1v1h-1v1h1v-1h2v1h-1v1h-1v1h-1v-1h-1v-1h-2v3h2v1h-6v-1h1v-1h2v-1h-1v-3h-1v-1h1zM29 18h1v1h-1zM1 19h1v1h-1zM25 19h1v1h-1zM3 20h1v1h-1zM27 20h1v1h1v-1h1v2h-1v2h-2zM2 21h1v1h-1zM4 21h1v1h-1zM9 21h1v1h1v4h-1v-1h-1zM12 22h2v1h-2zM22 22v3h3v-3zM1 23h7v7h-7zM15 23h1v1h1v1h-3v-1h1zM23 23h1v1h-1zM2 24v5h5v-5zM19 24h1v1h-1zM29 24h1v1h-1zM3 25h3v3h-3zM13 25h1v1h1v1h1v1h-2v-1h-1zM18 25h1v3h-1v-1h-2v-1h2zM9 26h1v2h-1zM11 26h1v2h-1zM29 26h1v2h-1zM10 28h1v2h-2v-1h1zM12 28h1v1h-1zM16 28h1v1h-1zM28 28h1v2h-1zM14 29h1v1h-1zM26 29h1v1h-1z"/></svg>