<svg xmlns="http://www.w3.org/2000/svg" viewBox="0 0 31 31"><path d="M1 1h7v7h-7zM9 1h1v1h-1zM12 1h1v1h-1zM14 1h2v1h1v1h-1v1h-1v-1h-2v-1h1zM17 1h1v1h-1zM19 1h2v1h1v1h-2v3h-2v-1h1v-1h-1v-1h1zM23 1h7v7h-7zM2 2v5h5v-5zM10 2h1v2h1v-1h1v1h1v1h-1v2h-1v1h1v2h-1v-1h-2v1h-3v-1h2v-5h1zM24 2v5h5v-5zM3 3h3v3h-3zM25 3h3v3h-3zM21 5h1v1h-1zM10 6v2h1v-2zM17 6h1v2h1v-1h1v1h1v-1h1v2h5v1h2v-1h1v5h-2v-3h-1v1h-1v-1h-1v1h-1v-2h-3v-1h-2v1h-1v-1h-2v-1h1zM20 6h1v1h-1zM13 7h1v1h-1zM15 7h1v1h-1zM14 8h1v2h1v1h-3v-1h1zM1 9h1v1h2v1h-2v2h-1zM5 9h1v4h-2v-1h1zM10 10h2v1h-2zM17 10h1v1h1v-1h1v3h-1v1h-5v-1h1v-1h1v1h2v-1h-1zM7 11h2v1h-2zM22 11h1v1h-1zM9 12h2v1h-2zM13 12h1v1h-1zM21 12h1v1h-1zM23 12h1v1h-1zM2 13h1v1h-1zM6 13h3v1h-3zM11 13h1v1h-1zM20 13h1v1h-1zM22 13h1v1h-1zM1 14h1v1h-1zM3 14h1v1h-1zM5 14h1v1h3v1h1v1h-2v-1h-2v1h-1v1h-1v-2h1zM9 14h2v1h-2zM12 14h2v1h-2zM23 14h1v1h-1zM25 14h1v1h-1zM27 14h1v2h-1zM2 15h1v1h-1zM11 15h1v1h-1zM14 15h3v1h2v2h1v1h-1v1h1v1h-1v1h-1v-2h-1v-2h1v-1h-2v-1h-1v2h1v1h-2v-2h-1v-1h1zM21 15h1v1h1v2h1v2h-2v-3h-1zM24 15h1v1h1v1h-1v1h-1zM29 15h1v2h-2v-1h1zM1 16h1v1h-1zM6 17h2v1h-1v1h1v1h-1v1h1v1h-7v-1h3v-2h1v-1h1zM11 17h1v1h-1zM20 17h1v1h-1zM1 18h1v1h-1zM8 18h3v2h-1v-1h-2zM25 18h1v1h-1zM27 18h2v1h-1v1h-2v-1h1zM13 19h1v2h1v-1h1v1h1v1h-4zM29 19h1v3h-2v-1h1zM5 20v1h1v-1zM8 20h1v1h-1zM21 20h1v1h2v-1h1v1h2v1h-1v4h-1v3h-2v-1h1v-2h-1v1h-1v3h-1v-4h-1v-1h-1v1h-1v-2h2v-1h1v-1h-1v-1h1zM10 21h1v2h-1v1h-1v-2h1zM19 22h1v1h-1zM22 22v3h3v-3zM27 22h1v1h-1zM1 23h7v7h-7zM12 23h1v1h1v-1h3v1h-2v2h-1v-1h-2zM23 23h1v1h-1zM29 23h1v1h-1zM2 24v5h5v-5zM10 24h1v1h1v1h-1v1h1v1h1v2h-1v-1h-1v-1h-1v-2h-1v-1h1zM3 25h3v3h-3zM16 25h1v1h1v1h1v1h1v1h-1v1h-1v-2h-2v-1h-1v-1h1zM28 25h2v1h-1v1h1v2h-1v1h-1v-2h-1v-1h-1v-1h2zM12 26h1v1h-1zM19 26h1v1h-1zM14 27h1v1h1v1h1v1h-3zM9 29h1v1h-1zM25 29h1v1h-1z"/></svg>