<svg xmlns="http://www.w3.org/2000/svg" viewBox="0 0 31 31"><path d="M1 1h7v7h-7zM9 1h2v1h-1v2h-1zM13 1h1v3h-2v-1h1zM16 1h4v1h1v1h-1v1h-1v-2h-1v3h2v-1h1v-1h1v2h-1v1h-1v2h-1v-1h-1v2h-2v-1h1v-1h-1v-1h-1v-1h2v-1h-1v-1h1v-1h-1zM21 1h1v1h-1zM23 1h7v7h-7zM2 2v5h5v-5zM24 2v5h5v-5zM3 3h3v3h-3zM25 3h3v3h-3zM10 4h2v1h-1v2h-1v-1h-1v-1h1zM12 5h1v1h-1zM9 7h1v1h-1zM11 7h1v1h-1zM13 7h1v1h1v6h1v1h-1v1h-1v2h-1v2h-1v-2h-3v-1h-1v-1h2v1h1v-2h-1v-2h1v-1h1v1h1v1h-1v2h1v-1h1v-2h-1v-2h1v-1h-1zM15 7h1v1h-1zM21 7h1v1h-1zM20 8h1v1h2v1h-2v1h-2v2h-1v3h-1v-2h-1v-1h1v-1h-1v-1h1v-1h1v-1h1v1h1zM1 9h1v2h-1zM4 9h6v1h-1v1h-1v-1h-2v1h-3v-1h1zM11 9h1v1h1v1h-2v1h-1v-2h1zM25 9h1v2h2v-1h-1v-1h3v1h-1v2h1v2h-2v-2h-3v1h-1v1h-1v-2h1v-1h1zM7 11h1v1h-1zM3 12h1v1h1v1h1v-1h3v2h-1v-1h-1v1h1v1h-1v1h-1v-2h-1v1h-1v-2h-3v-1h2zM9 12h1v1h-1zM21 12h1v1h-1zM20 13h1v1h-1zM19 14h1v1h-1zM25 14h2v1h-1v2h-1v-1h-1v-1h1zM20 15h1v1h-1zM22 15h1v1h1v1h-2zM29 15h1v1h-1zM1 16h1v2h2v2h-1v1h1v1h-3zM16 16h1v1h-1zM27 16h1v1h-1zM4 17h1v1h-1zM7 17h1v1h-1zM15 17h1v2h-2v-1h1zM26 17h1v1h-1zM17 18h2v1h-2zM20 18h2v1h-1v1h1v1h1v-1h1v1h1v-1h-1v-2h2v2h1v-2h1v2h1v-2h1v5h-3v1h-1v1h1v1h-2v1h-1v-1h-1v1h-3v1h-2v-1h1v-1h1v-2h-1v1h-1v-3h-1v-1h-1v1h1v3h-1v1h-2v-1h1v-3h-1v-1h1v-1h1v-1h1v1h1v1h1v1h1v1h1v-2h-2v-2h1zM5 19h3v1h-3zM10 19h1v2h2v1h1v2h-1v-1h-1v-1h-1v1h1v1h-2v2h1v4h-2v-1h1v-2h-1v-5h1v-1h-2v-1h2zM13 20h1v1h-1zM5 21h3v1h-3zM26 21v1h1v-1zM22 22v3h3v-3zM1 23h7v7h-7zM23 23h1v1h-1zM2 24v5h5v-5zM29 24h1v5h-1v-1h-1v-1h1v-1h-1v-1h1zM3 25h3v3h-3zM11 25h1v1h-1zM17 25h1v2h-1v1h-1v-2h1zM13 26h1v1h1v1h-2v1h1v1h-2v-3h1zM27 26h1v1h-1zM25 27h2v1h-2zM17 28h1v1h-1zM20 28h1v1h1v1h-2zM23 28h1v1h3v1h-4zM27 28h1v1h-1zM16 29h1v1h-1z"/></svg>