<svg xmlns="http://www.w3.org/2000/svg" viewBox="0 0 31 31"><path d="M1 1h7v7h-7zM10 1h1v1h-1zM12 1h2v2h-1v2h-2v-1h1v-1h-1v-1h1zM16 1h2v1h-2zM19 1h1v2h-1zM21 1h1v1h-1zM23 1h7v7h-7zM2 2v5h5v-5zM24 2v5h5v-5zM3 3h3v3h-3zM9 3h2v1h-1v4h1v-2h1v3h-3zM15 3h1v1h-1zM17 3h1v1h1v1h2v1h-3v-1h-1zM25 3h3v3h-3zM14 5h3v1h1v2h-1v-1h-1v1h-1v-1h-1zM21 6h1v3h-1v1h2v1h1v1h-2v-1h-3v-1h1v-2h1zM13 7h1v1h-1zM19 7h1v1h-1zM14 8h1v1h-1zM16 8h1v2h1v1h-2v-1h-1v-1h1zM1 9h1v3h-1zM3 9h5v1h-1v1h1v-1h1v2h1v1h-2v-1h-2v-1h-1v-1h-2zM18 9h1v1h-1zM23 9h5v1h-2v1h1v1h-1v1h-2v-1h1v-1h-1v-1h-1zM11 10h1v1h-1zM13 10h1v1h-1zM29 10h1v1h-1zM3 11h1v1h-1zM10 11h1v1h-1zM28 11h1v1h-1zM4 12h2v1h-2zM11 12h1v1h1v-1h1v2h-4v-1h1zM15 12h1v1h-1zM17 12h1v1h1v1h-2zM21 12h1v2h2v3h-2v2h-2v1h-1v-1h-3v-1h-1v-1h1v-1h-1v1h-1v2h-1v-3h1v-2h3v1h3v2h-1v-1h-2v2h1v-1h1v1h2v-3h-1v-1h1zM1 13h1v3h-1zM3 13h1v2h1v-1h2v1h-1v1h1v1h-2v-1h-1v1h-2v-1h1zM7 13h1v1h-1zM26 13h2v1h-2zM8 14h2v4h-1v-1h-1v-1h1v-1h-1zM25 14h1v2h-1zM28 14h1v1h-1zM7 15h1v1h-1zM11 15h1v1h-1zM22 15v1h1v-1zM28 16h2v1h-1v1h-2v1h-1v3h1v1h-1v2h2v1h-3v1h-1v-1h-3v-1h-1v-1h-2v1h-1v-1h-2v1h-1v-1h-1v-1h1v-1h3v1h2v-1h2v-2h1v1h1v-1h1v1h1v-1h-1v-1h1v-1h1v-1h2zM4 17h1v1h-1zM7 17h1v1h-1zM11 17h1v1h-1zM24 17h1v1h-1zM1 18h1v4h-1zM3 18h1v1h-1zM5 18h1v1h-1zM23 18h1v1h-1zM4 19h1v1h-1zM7 19h1v1h-1zM22 19h1v1h-1zM3 20h1v1h-1zM6 20h1v1h-1zM9 20h2v2h-1v-1h-1zM12 20h2v2h-2zM15 20h1v1h-1zM17 20h1v1h-1zM28 20h1v2h-2v-1h1zM5 21h1v1h-1zM7 21h2v1h-2zM18 21h1v1h-1zM9 22h1v1h-1zM22 22v3h3v-3zM1 23h7v7h-7zM10 23h1v1h-1zM23 23h1v1h-1zM2 24v5h5v-5zM9 24h1v1h1v1h-1v2h-1zM12 24h1v1h-1zM29 24h1v2h-1zM3 25h3v3h-3zM15 25h1v1h-1zM18 25h1v1h-1zM13 26h1v1h1v1h1v2h-3v-1h1v-1h-1zM17 26h1v1h-1zM19 26h2v1h-1v1h-1zM11 27h1v2h-2v-1h1zM16 27h1v1h-1zM21 27h1v2h-1zM23 27h1v1h-1zM25 27h1v2h2v1h-3zM27 27h2v2h-1v-1h-1zM17 28h1v1h-1zM9 29h1v1h-1zM18 29h1v1h-1zM20 29h1v1h-1zM22 29h1v1h-1z"/></svg>