<svg xmlns="http://www.w3.org/2000/svg" viewBox="0 0 31 31"><path d="M1 1h7v7h-7zM9 1h2v1h-2zM12 1h1v1h1v-1h2v1h1v1h-1v1h-1v-1h-2v1h-2v1h-1v1h1v1h-1v1h1v-1h1v1h1v1h-1v3h-1v-2h-2v1h-1v-1h-1v-1h2v-5h1v-1h2zM17 1h1v1h-1zM19 1h2v1h1v1h-2v3h-2v-1h1v-1h-1v-1h1zM23 1h7v7h-7zM2 2v5h5v-5zM24 2v5h5v-5zM3 3h3v3h-3zM25 3h3v3h-3zM13 4h1v4h-1v-1h-1v-1h-1v-1h2zM21 5h1v1h-1zM17 6h1v2h1v-1h1v1h1v-1h1v2h5v1h2v-1h1v4h-1v-1h-1v-1h-1v1h-1v-1h-1v1h-1v-2h-3v-1h-2v1h-1v-1h-2v-1h1zM20 6h1v1h-1zM15 7h1v1h-1zM14 8h1v2h1v1h-2zM1 9h1v4h-1zM5 9h1v1h1v1h-2v3h1v2h-1v1h1v1h-1v1h-1v-1h-1v-1h1v-1h-1v1h-1v-2h1v-1h-1v-1h1v-1h1v-1h-1v-1h2zM17 10h1v1h1v-1h1v3h-1v1h-5v-1h1v-1h1v1h2v-1h-1zM7 11h1v1h-1zM9 11h1v1h1v1h-1v1h-1v-1h-1v-1h1zM22 11h1v1h-1zM6 12h1v1h1v1h-2zM13 12h1v1h-1zM21 12h1v1h-1zM23 12h1v1h-1zM20 13h1v1h-1zM22 13h1v1h-1zM1 14h1v1h-1zM12 14h1v1h4v1h2v2h1v1h-1v1h1v1h-1v1h-1v-2h-1v-2h1v-1h-2v-1h-1v2h1v1h-2v2h1v-1h1v1h1v1h-4v-2h-1v-1h-1v-1h-1v1h1v1h-1v1h-2v-1h1v-1h-1v-1h-1v-1h1v-1h1v1h1v-1h1v1h1v1h2v-1h-1v-1h-1zM23 14h1v1h-1zM25 14h3v1h-1v1h-1v-1h-1zM7 15h1v1h-1zM9 15h1v1h-1zM21 15h1v1h1v2h1v2h-2v-3h-1zM24 15h1v1h1v1h-1v1h-1zM29 15h1v2h-1v2h-2v1h-1v-1h-1v-1h3v-2h1zM6 16h1v1h-1zM20 17h1v1h-1zM1 18h1v1h-1zM3 19h1v3h-3v-1h2zM7 19h1v1h-1zM29 19h1v1h-1zM5 20h2v1h1v1h-2v-1h-1zM21 20h1v1h2v-1h1v1h2v1h-1v4h-1v3h-2v-1h1v-2h-1v1h-1v3h-1v-4h-1v-1h-1v1h-1v-2h2v-1h1v-1h-1v-1h1zM28 20h1v1h-1zM9 22h3v1h-1v1h-2zM19 22h1v1h-1zM22 22v3h3v-3zM27 22h2v1h-2zM1 23h7v7h-7zM12 23h1v1h-1zM14 23h3v1h-2v2h-1zM23 23h1v1h-1zM29 23h1v1h-1zM2 24v5h5v-5zM3 25h3v3h-3zM9 25h1v1h-1zM11 25h2v2h2v1h-2v1h1v1h-5v-1h1v-2h1zM16 25h1v1h1v1h1v1h1v1h-1v1h-1v-2h-2v-1h-1v-1h1zM28 25h2v1h-1v1h1v2h-1v1h-1v-2h-1v-1h-1v-1h2zM19 26h1v1h-1zM11 28v1h1v-1zM16 29h1v1h-1zM25 29h1v1h-1z"/></svg>