<svg xmlns="http://www.w3.org/2000/svg" viewBox="0 0 31 31"><path d="M1 1h7v7h-7zM10 1h2v1h-1v1h1v1h-1v2h-1v2h1v-1h1v1h1v1h-1v2h1v1h-1v1h-1v1h-1v-1h-1v1h-3v-1h2v-1h-2v1h-1v1h1v1h2v1h-3v-1h-1v-1h-1v-1h1v-1h1v-1h1v-1h-2v1h-2v-1h1v-1h5v1h-1v1h2v1h1v-1h1v-2h-2v-6h1zM16 1h2v1h-2zM19 1h1v2h-1zM21 1h1v1h-1zM23 1h7v7h-7zM2 2v5h5v-5zM12 2h2v1h-2zM24 2v5h5v-5zM3 3h3v3h-3zM15 3h1v1h-1zM17 3h1v1h1v1h2v1h-3v-1h-1zM25 3h3v3h-3zM12 4h1v1h-1zM13 5h4v1h1v2h-1v-1h-1v1h-1v-1h-1v1h-1zM21 6h1v3h-1v1h2v1h1v1h-2v-1h-3v-1h1v-2h1zM19 7h1v1h-1zM14 8h1v1h-1zM16 8h1v2h1v1h-2v-1h-1v-1h1zM1 9h1v1h-1zM13 9h1v1h-1zM18 9h1v1h-1zM23 9h5v1h-2v1h1v1h-1v1h-2v-1h1v-1h-1v-1h-1zM9 10h1v1h-1zM29 10h1v1h-1zM1 11h1v1h1v1h-2zM28 11h1v1h-1zM15 12h1v1h-1zM17 12h1v1h1v1h-2zM21 12h1v2h2v3h-2v2h-2v1h-1v-1h-3v-1h-1v-1h1v-1h-1v1h-1v-1h-2v-1h1v-1h4v1h3v2h-1v-1h-2v2h1v-1h1v1h2v-3h-1v-1h1zM12 13h1v1h-1zM26 13h2v1h-2zM29 13h1v1h-1zM1 14h1v1h-1zM9 14h1v2h-1zM11 14h1v1h-1zM25 14h1v1h1v1h-2zM28 14h1v1h-1zM3 15h1v3h3v1h-1v1h-2v1h-1v-2h-1v3h-1v-4h1v-2h1zM22 15v1h1v-1zM8 16h1v1h-1zM10 16h1v2h1v-1h2v1h-1v1h-2v1h-2v1h-1v-1h-1v-1h1v-1h1v1h1v-1h-1v-1h1zM29 16h1v1h-1zM7 17h1v1h-1zM24 17h1v1h-1zM26 17h3v1h-3zM23 18h1v1h-1zM25 18h1v4h1v1h-1v2h2v1h-3v1h-1v-1h-3v-1h-1v-1h-2v1h-1v-1h-2v1h-1v2h-1v-2h-1v-1h2v-1h-1v-1h-1v1h-1v-2h3v1h3v1h2v-1h2v-2h1v1h1v-1h1v1h1v-1h-1v-1h1zM13 19h1v1h-1zM22 19h1v1h-1zM27 19h1v1h-1zM6 20h1v1h-1zM15 20h1v1h-1zM17 20h1v1h-1zM28 20h2v1h-1v1h-2v-1h1zM5 21h1v1h-1zM7 21h1v1h-1zM9 21h1v2h-1zM18 21h1v1h-1zM22 22v3h3v-3zM1 23h7v7h-7zM10 23h1v2h1v2h-1v-1h-1v1h1v1h-2v-4h1zM23 23h1v1h-1zM2 24v5h5v-5zM29 24h1v2h-1zM3 25h3v3h-3zM15 25h1v1h-1zM18 25h1v1h-1zM17 26h1v1h-1zM19 26h2v1h-1v1h-1zM12 27h1v1h-1zM14 27h3v1h-3zM21 27h1v2h-1zM23 27h1v1h-1zM25 27h1v2h2v1h-3zM27 27h2v2h-1v-1h-1zM17 28h1v1h-1zM9 29h2v1h-2zM12 29h1v1h-1zM14 29h1v1h-1zM18 29h1v1h-1zM20 29h1v1h-1zM22 29h1v1h-1z"/></svg>