<svg xmlns="http://www.w3.org/2000/svg" viewBox="0 0 31 31"><path d="M1 1h7v7h-7zM9 1h2v1h-1v1h1v1h-2zM16 1h2v3h1v1h1v1h-1v1h-1v2h-2v-1h1v-1h-1v-1h-1v-1h2v-1h-1v-1h1v-1h-1zM19 1h1v1h-1zM23 1h7v7h-7zM2 2v5h5v-5zM12 2h2v1h-2zM20 2h1v2h-1zM24 2v5h5v-5zM3 3h3v3h-3zM25 3h3v3h-3zM11 4h1v1h-1zM21 4h1v1h-1zM9 5h1v1h-1zM13 5h1v3h-1v-1h-1v1h-1v-1h-1v-1h3zM9 7h1v1h-1zM15 7h1v1h-1zM19 7h1v1h-1zM21 7h1v2h-1v1h1v1h-2v-3h1zM10 8h1v1h-1zM14 8h1v6h1v1h-1v1h-3v2h-1v-3h1v-1h1v-1h1v-1h-1v-3h1zM1 9h1v2h-1zM4 9h6v1h-1v1h-1v-1h-4zM11 9h1v3h-1v-1h-1v-1h1zM18 9h1v1h-1zM22 9h1v1h-1zM25 9h1v2h1v-2h3v1h-1v2h1v2h-1v-1h-1v-1h-3v-1h-1v-1h1zM3 10h1v1h-1zM17 10h1v2h1v-1h1v1h2v2h-1v-1h-3v1h2v1h1v1h-2v-1h-1v1h-1v-2h-1v-1h1v-1h-1v-1h1zM2 11h1v1h-1zM4 11h1v1h-1zM7 11h1v1h-1zM9 11h1v1h-1zM23 11h1v1h-1zM1 12h1v1h1v-1h1v2h-2v1h3v1h-3v3h1v1h1v-1h-1v-1h1v-1h4v1h-1v1h2v1h-2v1h-3v1h-3zM8 12h1v1h3v1h-5v1h2v1h1v2h-1v-1h-1v-1h-2v-3h2zM24 12h1v1h1v1h2v1h-1v1h-1v1h-1v1h2v1h1v1h1v1h1v2h-1v-1h-1v1h-1v-2h-1v-1h-3v-1h1v-3h1v-1h-1v1h-1v1h-1v-3h1v-1h1zM29 15h1v2h-1v1h-1v-1h-1v-1h2zM16 16h1v1h-1zM13 17h1v1h1v-1h1v2h-3zM17 17h1v1h5v1h-2v2h5v5h-1v1h-1v-1h-1v2h-1v-1h-3v1h-1v-2h2v-2h-1v1h-1v-2h1v-1h1v-2h-1v-1h-2zM10 18h1v1h-1zM29 18h1v2h-1zM12 19h1v1h-1zM16 19h1v1h-1zM9 20h1v2h2v2h2v1h-3v1h-1v1h-1zM13 20h1v1h-1zM15 20h1v1h3v1h-3v2h1v1h-1v1h-1v1h2v2h-1v1h-2v-1h1v-1h-2v1h-2v1h-2v-1h1v-1h1v-1h2v-1h1v-1h1v-3h-1v-1h1zM7 21h1v1h-1zM13 22h1v1h-1zM22 22v3h3v-3zM1 23h7v7h-7zM10 23v1h1v-1zM23 23h1v1h-1zM2 24v5h5v-5zM3 25h3v3h-3zM17 25h1v1h-1zM26 26h3v1h1v2h-1v-1h-1v-1h-1v1h-1v1h1v1h-3v-2h1v-1h1zM19 28h2v1h1v1h-2v-1h-1zM27 28h1v1h-1z"/></svg>