<svg xmlns="http://www.w3.org/2000/svg" viewBox="0 0 31 31"><path d="M1 1h7v7h-7zM9 1h1v1h-1zM11 1h3v2h1v1h-1v1h1v-1h1v-1h1v-1h1v1h2v2h1v1h1v2h-1v-1h-1v-1h-1v-2h-1v2h-1v-1h-1v1h1v1h-1v2h2v-1h1v-1h1v2h-1v1h-5v-1h1v-2h-1v-1h-1v-1h-1v-1h1v-1h-2v1h-1v-2h1zM18 1h2v1h-2zM23 1h7v7h-7zM2 2v5h5v-5zM20 2h1v1h-1zM24 2v5h5v-5zM3 3h3v3h-3zM25 3h3v3h-3zM9 4h1v4h1v-1h1v3h-1v1h-1v1h-4v-2h1v1h2v-1h-2v-1h2zM12 6h1v1h-1zM13 7h1v2h-1zM17 7h1v1h-1zM1 9h1v1h3v1h-3v1h-1zM5 9h1v1h-1zM20 9h7v1h2v-1h1v3h-1v1h-1v-2h-1v1h-1v-1h-3v-1h-1v2h1v2h2v-1h-1v-1h2v2h2v2h-1v-1h-2v1h-3v-2h-1v-1h-1v-1h1v-2h-1zM13 10h1v1h-1zM14 11h3v1h2v2h1v1h-1v1h1v1h-1v1h-5v1h-1v-3h1v1h1v-1h1v1h2v-1h-1v-2h1v-1h-2v-1h-1v2h1v1h-2zM4 12h2v1h3v1h-2v1h1v1h-2v-1h-1v-1h-1zM11 12h2v1h-1v1h-1zM29 13h1v1h-1zM1 14h2v1h-2zM9 14h1v2h-1zM12 14h1v2h-1zM3 15h1v2h-3v-1h2zM29 15h1v3h-2v-1h1zM8 16h1v1h-1zM10 16h2v4h-1v-1h-2v-2h1zM21 16h1v1h-1zM5 17h3v1h-1v1h1v1h-1v1h-1v1h-1v-1h-2v-2h1v1h1v-1h1v-1h-1zM20 17h1v1h-1zM22 17h1v1h1v1h1v1h1v2h2v2h-1v-1h-1v3h-1v2h-1v-2h-1v4h-2v-1h-1v-1h-1v-1h-1v-3h-1v-2h1v1h1v1h1v-1h1v-1h-1v-1h1v-2h1v1h1v-1h-1zM26 17h1v1h-1zM1 18h2v1h-2zM4 18h1v1h-1zM19 18h1v1h-1zM25 18h1v1h-1zM27 18h1v1h-1zM14 19h3v1h3v1h-1v1h-1v-1h-2v-1h-1v2h1v1h-2v2h1v-1h1v1h1v1h-3v1h-2v1h-1v-2h2v-1h-2v-1h2v-2h1zM29 19h1v2h-1zM10 20h1v4h-2v-2h1zM1 21h2v1h-2zM7 21h1v1h-1zM19 22h1v1h-1zM22 22v3h3v-3zM1 23h7v7h-7zM23 23h1v1h-1zM29 23h1v1h-1zM2 24v5h5v-5zM28 24h1v1h1v1h-1v1h1v2h-1v1h-1v-3h-2v-1h2zM3 25h3v3h-3zM9 25h1v1h-1zM19 25v1h1v-1zM16 27h1v1h-1zM21 27v1h1v-1zM12 28h1v1h-1zM15 28h1v1h1v1h-4v-1h2zM18 28h1v2h-1zM9 29h1v1h-1zM25 29h1v1h-1z"/></svg>