<svg xmlns="http://www.w3.org/2000/svg" viewBox="0 0 31 31"><path d="M1 1h7v7h-7zM9 1h3v1h-2v1h1v2h-1v-1h-1zM13 1h1v2h-1v1h-1v-2h1zM16 1h2v3h1v1h1v1h-1v1h-1v2h-2v-1h1v-1h-1v-1h-1v-1h2v-1h-1v-1h1v-1h-1zM19 1h1v1h-1zM23 1h7v7h-7zM2 2v5h5v-5zM20 2h1v2h-1zM24 2v5h5v-5zM3 3h3v3h-3zM25 3h3v3h-3zM13 4h1v2h-1v1h-1v1h1v2h-1v2h-1v-2h-2v1h-1v-1h-2v2h1v1h2v-1h2v1h-1v2h1v2h-1v1h-1v-3h-1v-1h-2v-1h-1v-2h-2v-1h1v-1h7v-3h1v-1h1zM21 4h1v1h-1zM9 5h1v1h-1zM9 7h1v1h-1zM13 7h1v1h-1zM15 7h1v1h-1zM19 7h1v1h-1zM21 7h1v2h-1v1h1v1h-2v-3h1zM14 8h1v6h1v1h-1v1h-1v1h-1v1h-2v-1h1v-1h1v-1h1v-2h-2v-1h1v-1h1zM1 9h1v1h-1zM18 9h1v1h-1zM22 9h1v1h-1zM25 9h1v2h1v-2h3v1h-1v3h-1v-1h-3v-1h-1v-1h1zM17 10h1v2h1v-1h1v1h2v2h-1v-1h-3v1h2v1h1v1h-2v-1h-1v1h-1v-2h-1v-1h1v-1h-1v-1h1zM2 11h1v1h-1zM7 11h1v1h-1zM23 11h1v1h-1zM1 12h1v2h-1zM24 12h1v1h1v1h1v2h-1v1h-1v1h2v1h1v4h-1v-2h-1v-1h-3v-1h1v-3h1v-1h-1v1h-1v1h-1v-3h1v-1h1zM3 13h2v2h3v1h-1v1h-1v-1h-2v-2h-1zM1 15h1v2h2v1h-1v1h2v-1h2v1h-1v1h1v1h1v1h-4v-1h-1v1h-2zM29 15h1v1h-1zM16 16h1v1h-1zM27 16h1v1h-1zM7 17h1v1h-1zM15 17h1v2h-2v-1h1zM17 17h1v1h5v1h-2v2h5v5h-1v1h-1v-1h-1v2h-1v-1h-3v1h-1v-2h2v-2h-1v1h-1v-2h1v-1h1v-2h-1v-1h-2zM28 18h2v5h-1v-4h-1zM7 19h1v1h-1zM10 19h1v1h-1zM12 19h2v2h-1v-1h-1zM16 19h1v1h-1zM8 20h2v3h1v-3h1v1h1v1h-1v2h-1v1h1v1h-2v1h-1v-6h-1zM15 20h1v1h3v1h-3v2h1v1h-1v1h-1v1h2v2h-1v1h-5v-1h-1v-2h1v1h1v-1h1v-1h1v-1h1v-3h-1v-1h1zM22 22v3h3v-3zM1 23h7v7h-7zM13 23h1v1h-1zM23 23h1v1h-1zM2 24v5h5v-5zM12 24h1v1h-1zM3 25h3v3h-3zM17 25h1v1h-1zM26 26h3v1h1v2h-1v-1h-1v-1h-1v1h-1v1h1v1h-3v-2h1v-1h1zM13 28v1h1v-1zM19 28h2v1h1v1h-2v-1h-1zM27 28h1v1h-1zM9 29h1v1h-1z"/></svg>