<svg xmlns="http://www.w3.org/2000/svg" viewBox="0 0 31 31"><path d="M1 1h7v7h-7zM10 1h1v1h-1zM13 1h4v1h1v1h-1v2h1v1h-2v-1h-1v-1h1v-1h-1v1h-1v4h-1v-1h-1v1h1v1h-4v-6h1v1h1v-2h2v1h-1v1h1v-1h1v-1h-1zM18 1h4v2h-1v-1h-3zM23 1h7v7h-7zM2 2v5h5v-5zM24 2v5h5v-5zM3 3h3v3h-3zM25 3h3v3h-3zM18 4h1v1h-1zM10 5v1h3v-1zM19 5h1v1h-1zM21 5h1v1h-1zM10 7v1h1v-1zM15 7h1v2h-1zM17 7h1v2h1v1h-2zM19 7h1v1h-1zM21 7h1v1h-1zM1 9h1v1h-1zM3 9h5v1h-2v1h-1v-1h-2zM13 9h1v1h3v1h3v1h1v-1h1v1h1v-1h-1v-1h1v-1h5v1h-2v2h-2v1h-3v1h1v1h-2v1h-1v-1h-3v-1h-1v-1h1v-1h-1v1h-2zM2 10h1v1h2v1h-4v-1h1zM8 10h4v3h-2v-1h1v-1h-1v1h-1v1h1v1h-1v1h4v1h-1v4h-1v3h-2v-2h-1v-1h1v-1h2v-1h-2v-2h-2v1h1v1h-3v-1h1v-1h-2v2h-1v1h-1v3h-1v-6h1v-1h1v-2h1v2h4v-1h-2v-1h-1v-1h1v-1h2zM20 10h1v1h-1zM29 10h1v1h-1zM27 11h2v1h-2zM7 12v1h1v-1zM17 12v2h1v-1h1v1h1v-1h-1v-1zM1 13h1v2h-1zM12 13h1v1h-1zM25 13h4v2h-1v-1h-1v1h-1v2h-3v-1h2v-1h-2v-1h2zM22 15h1v1h-1zM27 15h1v1h-1zM10 16v1h1v-1zM15 16h1v1h-1zM17 16h1v1h1v1h-2zM21 16h1v4h1v1h5v1h-2v3h2v1h-3v1h-1v-1h-3v-1h-1v-1h-1v-2h2v-3h-1v1h-3v2h1v1h-2v-1h-1v-1h1v-1h-1v1h-1v4h-1v-1h-1v-1h1v-1h-1v-2h1v-3h1v1h3v1h2v-1h2zM27 17h2v2h-1v-1h-1zM4 18h1v1h1v2h-1v-1h-1v2h-1v-3h1zM8 18h1v1h-1zM23 18h1v1h-1zM25 18h2v1h-1v1h-1zM7 19h1v1h-1zM29 20h1v2h-1zM6 21h2v1h-2zM18 21h1v1h-1zM22 22v3h3v-3zM28 22h1v1h-1zM1 23h7v7h-7zM23 23h1v1h-1zM27 23h1v1h-1zM2 24v5h5v-5zM9 24h1v2h1v1h1v-1h1v1h1v1h-2v2h-3v-1h2v-1h-2zM11 24h1v1h-1zM15 24h1v1h-1zM17 24h1v1h-1zM28 24h2v2h-1v-1h-1zM3 25h3v3h-3zM18 25h1v1h1v1h-1v1h-1v1h-1v-1h-1v-1h-2v-1h3v1h1zM20 27h1v1h1v-1h2v1h1v-1h1v2h2v1h-3v-1h-4v1h-1v-1h-1v-1h1zM28 27h1v2h-1zM14 28h1v1h-1zM15 29h1v1h-1zM18 29h1v1h-1z"/></svg>