<svg xmlns="http://www.w3.org/2000/svg" viewBox="0 0 31 31"><path d="M1 1h7v7h-7zM9 1h2v3h1v1h-1v2h-1v1h1v2h1v1h-1v1h-1v-1h-1v-1h-2v-1h2v-5h1v-2h-1zM18 1h2v1h-2zM23 1h7v7h-7zM2 2v5h5v-5zM17 2h1v1h2v2h1v1h1v2h-1v-1h-1v-1h-1v-2h-1v2h-1v-1h-1v1h1v1h-1v2h2v-1h1v-1h1v2h-1v1h-7v-1h1v-2h1v2h1v-2h-1v-2h1v-1h1v-1h1zM20 2h1v1h-1zM24 2v5h5v-5zM3 3h3v3h-3zM12 3h3v1h-1v1h-1v-1h-1zM25 3h3v3h-3zM12 6h1v1h-1zM11 7h1v1h-1zM17 7h1v1h-1zM1 9h1v1h-1zM5 9h1v1h-1zM20 9h7v1h2v-1h1v4h-1v-1h-3v-1h-3v-1h-1v2h1v2h2v-1h-1v-1h2v2h2v1h-1v1h-1v-1h-1v1h-3v-2h-1v-1h-1v-1h1v-2h-1zM2 10h3v1h1v1h-1v2h-1v-1h-1v1h1v1h-1v1h1v1h-1v1h1v1h2v-2h2v1h-1v1h2v-1h1v2h-4v1h-3v-2h-2v-1h1v-1h-1v-1h1v-2h-1v-2h1zM7 11h1v1h-1zM12 11h5v1h2v2h1v1h-1v1h1v1h-1v1h-5v-1h1v-1h1v1h2v-1h-1v-2h1v-1h-2v-1h-1v2h1v1h-2v-1h-1v1h-2v3h-1v-1h-1v-1h-2v-1h1v-1h-1v1h-1v2h-1v-1h-1v-1h1v-1h1v-2h1v1h1v-1h1v1h1v1h1v-2h1v1h1v-1h-1zM13 15h1v1h-1zM29 15h1v3h-2v-2h1zM12 16h1v1h-1zM21 16h1v1h-1zM4 17h1v1h-1zM20 17h1v1h-1zM22 17h1v1h1v1h1v1h1v2h3v1h-1v1h-1v-1h-1v3h-1v2h-1v-2h-1v4h-2v-1h-1v-1h-1v-1h-1v-3h-1v-2h1v1h1v1h1v-1h1v-1h-1v-1h1v-2h1v1h1v-1h-1zM26 17h1v1h-1zM11 18h3v1h3v1h3v1h-1v1h-1v-1h-2v-1h-1v2h1v1h-2v-1h-1v-1h1v-1h-1v-1h-1v1h-1zM19 18h1v1h-1zM25 18h1v1h-1zM27 18h1v1h-1zM29 19h1v1h-1zM10 20h1v1h-1zM12 20h1v1h-1zM28 20h1v1h-1zM1 21h2v1h-2zM6 21h3v1h-3zM9 22h2v3h2v-2h1v2h1v-1h1v1h1v1h-2v1h2v1h-3v-2h-1v2h-1v-2h-1v1h-1v-1h-1v-1h1v-1h-1zM19 22h1v1h-1zM22 22v3h3v-3zM1 23h7v7h-7zM23 23h1v1h-1zM29 23h1v1h-1zM2 24v5h5v-5zM28 24h1v1h1v1h-1v1h1v2h-1v1h-1v-3h-2v-1h2zM3 25h3v3h-3zM19 25v1h1v-1zM21 27v1h1v-1zM10 28h1v2h-2v-1h1zM18 28h1v2h-1zM16 29h1v1h-1zM25 29h1v1h-1z"/></svg>