<svg xmlns="http://www.w3.org/2000/svg" viewBox="0 0 31 31"><path d="M1 1h7v7h-7zM9 1h1v2h3v-1h-2v-1h6v2h-1v1h1v2h-1v-1h-1v-1h-1v1h1v1h1v3h3v1h-3v2h1v1h-1v1h-2v2h-1v2h-1v-2h-2v-1h2v-1h1v-1h2v-3h-1v-1h1v-2h-1v1h-1v-1h-1v-2h1v-1h-2v1h-1v-1h-1zM18 1h3v1h1v1h-1v1h-1v-1h-1v-1h-1zM23 1h7v7h-7zM2 2v5h5v-5zM24 2v5h5v-5zM3 3h3v3h-3zM25 3h3v3h-3zM18 4h1v1h-1zM21 4h1v4h-1v-2h-2v-1h2zM9 5h1v1h-1zM10 6h1v1h-1zM18 6h1v1h-1zM9 7h1v1h-1zM11 7h1v1h1v2h1v2h-1v1h-3v-2h-1v-1h-2v1h-1v-1h-2v-1h6v1h2v-1h-1zM17 7h1v1h-1zM19 7h1v1h-1zM1 9h1v1h1v1h1v1h-1v1h-1v-1h-1zM22 9h1v1h-1zM25 9h1v2h1v-2h3v1h-1v2h-3v1h-1v-1h-1v1h1v1h-1v1h-1v-2h-2v-2h2v-1h2zM19 10h2v1h-2zM7 11h2v1h-2zM18 11h1v2h-1zM4 12h3v1h-1v1h1v1h1v1h-1v1h1v1h-1v1h2v1h-3v-4h-3v-2h1zM1 13h1v1h-1zM7 13h1v1h-1zM9 13h1v2h-1zM20 13h1v1h-1zM29 13h1v1h-1zM25 14h3v2h1v2h-1v-1h-1v-1h-2zM1 15h1v1h-1zM15 15h2v1h-1v1h-2v-1h1zM18 15h4v1h-2v1h-1v-1h-1zM29 15h1v1h-1zM8 16h1v1h-1zM17 16h1v1h-1zM1 17h1v2h1v2h1v1h-3zM4 17h1v1h-1zM9 17h2v1h-1v1h-1zM16 17h1v1h-1zM26 17h1v2h1v1h1v1h1v2h-1v-1h-1v2h-1v-1h-1v3h-1v1h-1v-1h-1v1h-1v1h-3v-2h1v1h1v-1h-1v-2h-1v-2h1v-2h-2v1h1v1h-1v2h-1v1h-1v-2h1v-2h-1v-1h1v-1h2v-1h4v1h1v2h1v-2h-1v-1h2zM3 18h1v1h-1zM13 18h1v1h2v1h-1v6h-1v-2h-1v4h-1v1h-1v-1h-1v-1h1v-1h1v-4h1v1h1v-2h-1v-1h-1v-1h1zM29 18h1v2h-1zM4 19h1v1h1v1h2v1h-3v-1h-1zM10 19h1v2h-2v-1h1zM21 20v1h1v-1zM11 21h1v1h-1zM9 22h1v3h1v1h-1v1h-1zM22 22v3h3v-3zM1 23h7v7h-7zM23 23h1v1h-1zM2 24v5h5v-5zM18 24h1v1h-1zM28 24h1v1h-1zM3 25h3v3h-3zM17 25h1v3h-1v1h-1v-1h-2v-1h1v-1h2zM26 26h3v1h1v2h-1v-1h-1v1h-1v-1h-1v1h1v1h-3v-1h1v-2h1zM22 28h2v1h-1v1h-3v-1h2zM9 29h2v1h-2zM15 29h1v1h-1z"/></svg>