<svg xmlns="http://www.w3.org/2000/svg" viewBox="0 0 31 31"><path d="M1 1h7v7h-7zM9 1h1v1h-1zM13 1h3v1h1v1h-1v1h-1v-1h-1v1h-1zM17 1h1v1h-1zM19 1h2v1h1v1h-2v3h-2v-1h1v-1h-1v-1h1zM23 1h7v7h-7zM2 2v5h5v-5zM10 2h1v1h-1zM24 2v5h5v-5zM3 3h3v3h-3zM25 3h3v3h-3zM9 4h3v2h-1v-1h-1v1h1v1h-1v1h1v1h1v1h-2v1h-1v1h1v1h-1v1h-2v1h1v1h-1v1h-1v1h-2v-2h1v-2h1v-1h2v-1h-1v-1h1v-1h-1v-1h2zM21 5h1v1h-1zM17 6h1v2h1v-1h1v1h1v-1h1v2h5v1h2v-1h1v3h-2v-1h-1v1h-1v-1h-1v1h-1v-2h-3v-1h-2v1h-1v-1h-2v-1h1zM20 6h1v1h-1zM11 7h1v1h-1zM13 7h1v1h1v2h1v1h-2v-2h-2v-1h1zM15 7h1v1h-1zM1 9h1v2h-1zM5 9h1v3h-2v1h1v1h-2v-1h-2v-1h1v-1h1v-1h1v1h1zM17 10h1v1h1v-1h1v3h-1v1h-5v-1h1v-1h1v1h2v-1h-1zM10 11h4v1h-2v3h-1v1h-1v-1h-1v-1h1v-1h1v-1h-1zM22 11h1v1h-1zM21 12h1v1h-1zM23 12h1v1h-1zM20 13h1v1h-1zM22 13h1v1h-1zM13 14h1v1h-1zM23 14h1v1h-1zM25 14h3v2h-1v-1h-2zM2 15h2v1h-1v3h-2v-1h1v-1h-1v-1h1zM14 15h3v1h2v2h1v1h-1v1h1v1h-1v1h-1v-2h-1v-2h1v-1h-2v-1h-1v2h1v1h-2v-2h-1v2h-1v-1h-3v-1h2v-1h3zM21 15h1v1h1v2h1v2h-2v-3h-1zM24 15h1v1h1v1h-1v1h-1zM29 15h1v1h-1zM8 16h1v1h-1zM28 16h1v1h-1zM7 17h1v1h-1zM20 17h1v1h-1zM29 17h1v1h-1zM6 18h1v1h1v-1h1v1h1v1h-1v2h-3v-1h-1v-1h1zM25 18h2v1h-2zM13 19h1v2h-1v2h-1v-3h1zM29 19h1v2h-1zM3 20h1v1h1v1h-4v-1h2zM7 20v1h1v-1zM15 20h1v1h1v1h-3v-1h1zM21 20h1v1h2v-1h1v1h2v1h-1v4h-1v3h-2v-1h1v-2h-1v1h-1v3h-1v-4h-1v-1h-1v1h-1v-2h2v-1h1v-1h-1v-1h1zM10 21h1v2h-1v1h-1v-2h1zM19 22h1v1h-1zM22 22v3h3v-3zM27 22h1v1h-1zM1 23h7v7h-7zM14 23h3v1h-2v2h-3v-1h1v-1h1zM23 23h1v1h-1zM29 23h1v1h-1zM2 24v5h5v-5zM10 24h1v2h-2v-1h1zM3 25h3v3h-3zM16 25h1v1h1v1h1v1h1v1h-1v1h-1v-2h-2v-1h-1v-1h1zM28 25h2v1h-1v1h1v2h-1v1h-1v-2h-1v-1h-1v-1h2zM11 26h1v1h1v1h-1v2h-1v-2h-1v-1h1zM19 26h1v1h-1zM14 28h2v1h1v1h-2v-1h-1zM9 29h1v1h-1zM25 29h1v1h-1z"/></svg>