<svg xmlns="http://www.w3.org/2000/svg" viewBox="0 0 31 31"><path d="M1 1h7v7h-7zM11 1h1v2h-2v-1h1zM13 1h1v3h-2v-1h1zM16 1h2v1h-2zM19 1h1v2h-1zM21 1h1v1h-1zM23 1h7v7h-7zM2 2v5h5v-5zM24 2v5h5v-5zM3 3h3v3h-3zM9 3h1v1h2v1h-2v3h1v1h1v1h-1v1h1v1h-1v1h-2v-1h1v-1h-1v-1h1v-1h-1zM15 3h1v1h-1zM17 3h1v1h1v1h2v1h-3v-1h-1zM25 3h3v3h-3zM13 5h4v1h1v2h-1v-1h-1v1h-1v-1h-1v-1h-1zM21 6h1v3h-1v1h2v1h1v1h-2v-1h-3v-1h1v-2h1zM11 7h1v1h-1zM13 7h1v1h-1zM19 7h1v1h-1zM14 8h1v1h-1zM16 8h1v2h1v1h-2v-1h-1v-1h1zM1 9h1v1h-1zM3 9h5v1h-1v1h-2v-1h-2zM13 9h1v2h-1zM18 9h1v1h-1zM23 9h5v1h-2v1h1v1h-1v1h-2v-1h1v-1h-1v-1h-1zM2 10h1v1h2v2h-1v-1h-1v2h3v-1h2v1h-1v1h1v-1h1v1h1v-1h1v2h-4v1h-2v1h-1v-2h1v-1h-1v1h-1v-1h-1v-1h-1v-1h1v-1h-1v-1h1zM29 10h1v1h-1zM7 11h1v1h-1zM28 11h1v1h-1zM12 12h2v1h-1v1h4v1h3v2h-1v-1h-2v2h1v-1h1v1h2v-3h-1v-1h1v-2h1v2h2v3h-2v2h-2v1h-1v-1h-3v-1h-1v-1h1v-1h-1v1h-1v-2h-1v1h-1v-2h-1v-1h1zM15 12h1v1h-1zM17 12h1v1h1v1h-2zM26 13h3v1h-2v1h-1v1h-1v-2h1zM1 15h1v1h-1zM22 15v1h1v-1zM29 16h1v2h-1v1h-1v-1h-1v1h1v1h-2v2h1v1h-1v2h2v1h-3v1h-1v-1h-3v-1h-1v-1h-2v1h-1v-1h-2v1h-1v-3h3v1h2v-1h2v-2h1v1h1v-1h1v1h1v-1h-1v-1h1v-1h1v-1h3zM7 17h1v1h-1zM9 17h4v1h-1v2h1v-1h1v2h-1v2h-1v-1h-1v1h-2v-2h1v-2h1v-1h-1v1h-1v1h-2v-1h1v-1h1zM24 17h1v1h-1zM1 18h1v4h-1zM5 18h2v1h-2zM23 18h1v1h-1zM4 19h1v2h1v1h-3v-2h1zM22 19h1v1h-1zM15 20h1v1h-1zM17 20h1v1h-1zM7 21h1v1h-1zM18 21h1v1h-1zM27 21h2v2h-1v-1h-1zM22 22v3h3v-3zM1 23h7v7h-7zM11 23h1v2h-1v1h1v-1h2v1h-1v1h-3v1h-1v-4h2zM23 23h1v1h-1zM2 24v5h5v-5zM29 24h1v2h-1zM3 25h3v3h-3zM15 25h1v1h-1zM18 25h1v1h-1zM14 26h1v1h-1zM17 26h1v1h-1zM19 26h2v1h-1v1h-1zM16 27h1v1h-1zM21 27h1v2h-1zM23 27h1v1h-1zM25 27h1v2h2v1h-3zM27 27h2v2h-1v-1h-1zM12 28h4v2h-2v-1h-1v1h-1zM17 28h1v1h-1zM9 29h2v1h-2zM18 29h1v1h-1zM20 29h1v1h-1zM22 29h1v1h-1z"/></svg>