<svg xmlns="http://www.w3.org/2000/svg" viewBox="0 0 31 31"><path d="M1 1h7v7h-7zM9 1h1v1h-1zM12 1h4v1h1v1h-1v1h-1v-1h-1v1h-1v-1h-1zM17 1h1v1h-1zM19 1h2v1h1v1h-2v3h-2v-1h1v-1h-1v-1h1zM23 1h7v7h-7zM2 2v5h5v-5zM10 2h1v1h1v1h1v1h-2v-1h-1zM24 2v5h5v-5zM3 3h3v3h-3zM25 3h3v3h-3zM9 4h1v4h1v-2h1v2h1v-1h1v1h1v2h1v1h-3v-1h-1v2h2v1h1v-1h1v1h2v-1h-1v-2h1v1h1v-1h1v3h-1v1h-6v-1h-1v1h-1v-1h-1v-3h1v-1h-1v1h-3v-1h2zM13 5h1v1h-1zM21 5h1v1h-1zM17 6h1v2h1v-1h1v1h1v-1h1v2h5v1h2v-1h1v4h-1v2h-2v-1h1v-3h-1v1h-1v-1h-1v1h-1v-2h-3v-1h-2v1h-1v-1h-2v-1h1zM20 6h1v1h-1zM15 7h1v1h-1zM1 9h1v1h1v1h1v1h1v1h1v1h-2v-1h-1v-1h-1v-1h-1zM5 9h1v1h1v1h2v2h-1v-1h-1v1h-1v-2h-2v-1h1zM22 11h1v1h-1zM1 12h1v2h-1zM21 12h1v1h-1zM23 12h1v1h-1zM7 13h1v1h-1zM20 13h1v1h-1zM22 13h1v1h-1zM2 14h1v1h2v2h3v1h-1v1h-1v-1h-1v1h-1v3h-3v-1h2v-2h-2v-1h3v-2h-1v1h-1zM6 14h1v1h-1zM9 14h1v2h-1zM23 14h1v1h-1zM25 14h1v1h-1zM7 15h1v1h-1zM11 15h2v1h-2zM14 15h3v1h2v2h1v1h-1v1h1v1h-1v1h-1v-2h-1v-2h1v-1h-2v-1h-1v2h1v1h-2v1h-4v-1h-1v-2h1v1h1v1h2v-1h1zM21 15h1v1h1v2h1v2h-2v-3h-1zM24 15h1v1h1v1h-1v1h-1zM26 15h1v1h-1zM29 15h1v1h-1zM10 16h1v1h-1zM11 17h2v1h-2zM20 17h1v1h-1zM25 18h1v1h-1zM27 18h2v1h-1v1h-1zM5 19h1v1h1v1h-2zM7 19h1v1h-1zM29 19h1v2h-1zM15 20h1v1h1v1h-3v-1h1zM21 20h1v1h2v-1h1v1h2v1h-1v4h-1v3h-2v-1h1v-2h-1v1h-1v3h-1v-4h-1v-1h-1v1h-1v-2h2v-1h1v-1h-1v-1h1zM7 21h2v1h-2zM12 21h1v1h1v1h-1v1h1v-1h3v1h-2v2h1v-1h1v1h1v1h1v1h1v1h-1v1h-1v-2h-2v-1h-2v1h-1v-1h-1v2h3v1h-6v-1h1v-3h-1v-1h2v-1h1zM9 22h2v2h-2zM19 22h1v1h-1zM22 22v3h3v-3zM27 22h1v1h-1zM1 23h7v7h-7zM23 23h1v1h-1zM29 23h1v1h-1zM2 24v5h5v-5zM3 25h3v3h-3zM12 25v1h1v-1zM28 25h2v1h-1v1h1v2h-1v1h-1v-2h-1v-1h-1v-1h2zM19 26h1v1h-1zM15 28h1v1h-1zM16 29h1v1h-1zM25 29h1v1h-1z"/></svg>